<?xml version="1.0" encoding="UTF-8"?>
<svg width="18px" height="12px" viewBox="0 0 18 12" version="1.1" xmlns="http://www.w3.org/2000/svg" xmlns:xlink="http://www.w3.org/1999/xlink">
    <!-- Generator: Sketch 52.3 (67297) - http://www.bohemiancoding.com/sketch -->
    <title>LeftARrow</title>
    <desc>Created with Sketch.</desc>
    <g id="Inner-Pages-3-" stroke="none" stroke-width="1" fill="none" fill-rule="evenodd">
        <g id="0-0-7-Homepage" transform="translate(-176.000000, -460.000000)" fill="#333742">
            <g id="header">
                <g id="button" transform="translate(41.000000, 292.000000)">
                    <g id="LeftARrow" transform="translate(135.000000, 168.000000)">
                        <path d="M12.1209908,0.180471502 C11.8757701,-0.0601571674 11.4676405,-0.0601571674 11.2138457,0.180471502 C10.968625,0.412970825 10.968625,0.799927739 11.2138457,1.03188511 L15.8135916,5.39300876 L0.635058749,5.39300876 C0.281232137,5.39355072 0,5.6601933 0,5.99566435 C0,6.3311354 0.281232137,6.60644928 0.635058749,6.60644928 L15.8135916,6.60644928 L11.2138457,10.9594436 C10.968625,11.2000723 10.968625,11.5875711 11.2138457,11.8195285 C11.4676405,12.0601572 11.8763417,12.0601572 12.1209908,11.8195285 L17.8096539,6.42597778 C18.0634487,6.19347846 18.0634487,5.80652154 17.8096539,5.57456418 L12.1209908,0.180471502 Z" id="Arrow" transform="translate(9.000000, 6.000000) scale(-1, 1) translate(-9.000000, -6.000000) "></path>
                    </g>
                </g>
            </g>
        </g>
    </g>
</svg>