<svg height="18" viewBox="0 0 18 18" width="18" xmlns="http://www.w3.org/2000/svg"><g fill="#315963" fill-rule="evenodd" transform=""><path d="m12.375 0h-6.75c-3.106125 0-5.625 2.518875-5.625 5.625v6.75c0 3.106125 2.518875 5.625 5.625 5.625h6.75c3.106125 0 5.625-2.518875 5.625-5.625v-6.75c0-3.106125-2.518875-5.625-5.625-5.625zm3.9375 12.375c0 2.17125-1.76625 3.9375-3.9375 3.9375h-6.75c-2.17125 0-3.9375-1.76625-3.9375-3.9375v-6.75c0-2.17125 1.76625-3.9375 3.9375-3.9375h6.75c2.17125 0 3.9375 1.76625 3.9375 3.9375z" fill-rule="nonzero"/><path d="m9 4.5c-2.485125 0-4.5 2.014875-4.5 4.5s2.014875 4.5 4.5 4.5 4.5-2.014875 4.5-4.5-2.014875-4.5-4.5-4.5zm0 7.3125c-1.55025 0-2.8125-1.26225-2.8125-2.8125 0-1.551375 1.26225-2.8125 2.8125-2.8125s2.8125 1.261125 2.8125 2.8125c0 1.55025-1.26225 2.8125-2.8125 2.8125z" fill-rule="nonzero"/><circle cx="13.8375" cy="4.1625" r="1"/></g></svg>