<?xml version="1.0" encoding="UTF-8"?>
<svg width="64px" height="57px" viewBox="0 0 64 57" version="1.1" xmlns="http://www.w3.org/2000/svg" xmlns:xlink="http://www.w3.org/1999/xlink">
    <!-- Generator: Sketch 52.3 (67297) - http://www.bohemiancoding.com/sketch -->
    <title>logo</title>
    <desc>Created with Sketch.</desc>
    <g id="Inner-Pages-3-" stroke="none" stroke-width="1" fill="none" fill-rule="evenodd">
        <g id="0-0-7-Homepage" transform="translate(-704.000000, -19.000000)">
            <g id="header">
                <g transform="translate(0.000000, 20.000000)" id="logo">
                    <g transform="translate(705.000000, 0.000000)">
                        <path d="M42.1493414,6.16498424 L41.2582139,6.16498424 C36.1898157,6.16498424 35.521736,6.6045689 34.9089751,9.68306148 C34.6859273,10.8373212 34.5745807,13.3110349 34.5745807,17.2140987 L34.5745807,41.2362105 C34.5745807,43.0594859 34.5932516,44.597015 34.6306177,45.8525948 C34.6904506,47.5743673 34.789642,48.729231 34.8888334,49.3169385 C35.2785465,51.680406 36.4483951,52.8346658 40.9597057,52.8346658 L42.630614,52.8346658 L42.630614,52.99986 L42.4277079,52.99986 L19.3697406,53 L19.3697406,52.8351558 L19.5722921,52.8351558 L21.1318538,52.8346658 C21.1634667,52.8346658 21.1949149,52.8346075 21.2261994,52.834491 C25.5842088,52.8029373 26.7268565,51.6478081 27.1115212,49.3170785 C27.2103307,48.7316339 27.3091401,47.5833922 27.369044,45.8723535 C27.4068475,44.613152 27.4257739,43.0690099 27.4257739,41.2360705 L27.4257739,17.2139587 C27.4257739,13.3112449 27.3140727,10.8375312 27.0913795,9.68327148 C26.4786186,6.6047789 25.8101843,6.16484425 20.7421407,6.16484425 L20.4278879,6.16484425 L17.7545056,6.16498424 C14.6914101,6.16498424 12.4634141,6.38477657 11.1825735,6.76976314 C9.23294408,7.42949012 5.83580876,11.8820348 5.16737452,17.2140987 L5,17.2140987 L5.39006773,6.00014 L19.8510132,6.00014 L34.6104669,6 L41.5724667,6.00014 L56.6102869,6 L57,17.2139587 L56.8329801,17.2139587 C56.1645458,11.8818948 52.7674105,7.42935012 50.8177811,6.76962315 C49.5369405,6.38498657 47.3089446,6.16484425 44.2458491,6.16484425 L42.1493414,6.16484425 Z M44.412869,28.9777482 C43.7444347,28.5381636 43.1320284,28.2081251 42.8533073,28.153177 L42.5749407,28.0982289 C42.7419606,28.0432808 43.0203272,27.9333847 43.3547216,27.7681904 C44.0228012,27.5483981 45.6937095,26.2842422 46.3621438,24.7449959 C46.6408649,23.9753728 46.8078848,22.3811784 46.8078848,19.9074647 L47.030578,19.9074647 L47.030578,36.6736297 L46.8078848,36.6736297 C46.8078848,34.0900198 46.5851916,32.2760331 46.0837773,31.1763715 C45.6937095,30.2419041 45.0256299,29.4173329 44.412869,28.9777482 Z M15.9165773,31.1765115 C15.415163,32.2758231 15.1924698,34.0901598 15.1924698,36.6737697 L14.9697766,36.6737697 L14.9697766,19.9076047 L15.1924698,19.9076047 C15.1924698,22.3813184 15.3594897,23.9755128 15.6382108,24.7451359 C16.3066451,26.2840322 17.9771988,27.5485381 18.645633,27.7683304 C18.9796728,27.9331747 19.258394,28.0430708 19.4254139,28.0983689 L19.1470474,28.153317 C18.8683262,28.2082651 18.2559199,28.5379536 17.5874856,28.9778882 C16.9747247,29.4174729 16.3066451,30.2420441 15.9165773,31.1765115 Z" id="Combined-Shape" fill="#4A5B6D"></path>
                        <path d="M62,45.7838026 C60.9887833,49.5133815 57.5291743,52 53.3243115,52 C48.8001538,52 44.8079219,49.7725787 41.3483129,45.3177361 C40.5246297,46.0876529 39.6326257,46.8778031 38.6705581,47.6756281 C37.6948961,48.4842675 36.7408457,49.2231365 35.81991,49.8971189 C35.9401684,49.7830443 36.1283991,49.608967 36.3657788,49.4052373 C36.7882519,49.042431 37.1193984,48.7978857 37.1814448,48.7514883 C37.5638318,48.4647318 38.5862029,47.5657397 41.1353334,45.162148 L33.4175296,34.0246927 L27.6158438,26.2547076 C25.2207835,27.7048862 23.3046655,29.4146108 21.9738054,31.3312048 C20.7496092,33.1441897 20.004704,37.4954232 20.004704,39.7228445 C20.004704,42.8311176 21.2818836,46.8198937 23.464313,49.1509241 C24.4755297,50.2386452 25.5930618,51.119497 26.7642745,51.7408028 L26.7642745,51.9483699 C24.4755297,51.6891727 21.6545105,50.7566908 19.1527861,48.4772905 C16.5980784,46.2498692 14.9479233,42.9863568 15.0012554,39.8264536 C15.0012554,37.1329658 15.6398451,35.6824383 17.3963156,33.6102563 C18.5141964,32.2117078 21.8674899,29.6734592 27.4561963,26.0474894 C24.5285131,22.1103435 22.4527477,17.6555009 22.4527477,14.8064249 C22.4527477,12.4753945 23.410981,10.3512335 25.2741155,8.48661848 C26.1786682,7.55413655 27.2432169,6.88050295 28.4144296,6.41443641 L28.4144296,6.51804552 C27.5095283,7.55413655 26.87059,10.5068216 26.87059,12.4234156 C26.87059,14.6508369 29.1593348,19.3128977 31.980354,23.1980646 C36.2385488,20.7634251 38.1016833,16.5158007 38.1016833,12.837852 C38.1016833,9.57433965 37.569409,8.38300938 36.5578437,7.29493937 C36.1318848,6.88050295 35.6529425,6.51804552 35.1206681,6.20721821 L35.1206681,6 C37.9416873,6.67328475 42.1465501,8.74546682 42.1465501,13.2522884 C42.1465501,16.7230189 38.7932566,20.1417705 32.087018,23.4052828 L38.1546668,31.4864441 L44.7545899,40.6553264 C45.6594911,39.204799 46.7240398,36.8737686 47.948236,33.7138654 C48.001568,33.6622352 48.001568,33.5586261 48.0549,33.455017 C48.4805103,32.470905 48.6401578,32.0564686 48.9594527,30.7095502 C49.2790961,29.3626319 49.2257641,28.6373681 48.8531372,27.3940589 C48.4271783,26.2027286 47.5756091,25.4774649 45.8724706,24.9594194 C44.9675693,24.7005711 43.9033692,24.596962 42.6788245,24.544983 L42.6788245,24.3897437 L57.6354897,24.3897437 L57.6354897,24.544983 C56.517609,24.544983 55.3467449,24.8558103 54.4951756,25.2186166 C53.5902744,25.581074 52.6853731,26.3579679 52.0997668,26.9279924 C51.461177,27.497668 50.7162718,28.6373681 50.3436449,29.2590228 C50.1306654,29.5698501 49.9176859,29.9842865 49.6517231,30.554311 L49.0661167,31.7972714 C48.9064692,32.0564686 48.7468218,32.5225351 48.5338423,33.0925596 C48.2678795,33.6622352 48.1078834,34.0766716 48.0549,34.2319109 C46.6177244,37.5990323 45.5531757,39.7748235 44.9675693,40.8625446 C47.4159616,44.3332752 49.3324282,46.5087175 50.7692552,47.3895693 C52.0997668,48.2704211 54.8678026,48.7881178 56.7305885,48.7881178 C58.1227979,48.7881178 58.9217323,48.3914728 59.24033,48.2473969 C60.7677866,47.555623 61.6228416,46.3855727 62,45.7838026" id="Fill-73" fill="#E3F2F5"></path>
                        <path d="M30.1948979,29 C31.8457573,26.4085074 30.8767024,23.0895841 28.0300117,21.586384 C25.7530278,20.3839583 22.836276,21.0899051 21.515441,23.1630992 C20.4586255,24.8213859 21.0788501,26.9456043 22.9008059,27.9076791 C24.3580756,28.6770705 26.225018,28.2255734 27.0701754,26.8986083 C27.7464488,25.8371705 27.3496821,24.4776439 26.1837188,23.8619966 C25.2508008,23.3695458 24.0560756,23.6585711 23.5151306,24.5078556 C23.0822271,25.1872832 23.3362906,26.0573802 24.0826251,26.4511394" id="Stroke-41" stroke="#FFFFFE" stroke-width="0.582"></path>
                        <path d="M35.1421827,54.8742622 C38.2198593,55.5286455 41.245354,53.5640854 41.8993911,50.486439 C42.4229734,48.0240399 40.8511688,45.6039501 38.389098,45.0803729 C36.4192299,44.6618638 34.4832095,45.9191541 34.0643437,47.8886503 C33.729392,49.4646703 34.7353047,51.013542 36.3109876,51.3484903 C37.5718161,51.616449 38.8107845,50.8118678 39.0787458,49.5510518 C39.2931149,48.542681 38.6496551,47.5512339 37.6409219,47.336867 C36.8342173,47.1655145 36.0412634,47.6806297 35.8695566,48.4873264" id="Stroke-43" stroke="#FFFFFE" stroke-width="0.582"></path>
                        <path d="M30.1948979,14 C31.8457573,11.0845073 30.8767024,7.35048108 28.0300117,5.65963626 C25.7530278,4.30703458 22.836276,5.10109002 21.515441,7.43318746 C20.4586255,9.29908794 21.0788501,11.6890428 22.9008059,12.7712725 C24.3580756,13.6369079 26.225018,13.1288014 27.0701754,11.6360068 C27.7464488,10.4417712 27.3496821,8.91225944 26.1837188,8.21982529 C25.2508008,7.66572962 24.0560756,7.99099194 23.5151306,8.94638046 C23.0822271,9.71039457 23.3362906,10.6895194 24.0826251,11.1327218" id="Stroke-45" stroke="#FFFFFE" stroke-width="0.582"></path>
                        <path d="M31,10.0370853 C32.0289986,13.1441741 35.1933063,14.7610952 38.0675238,13.6486448 C40.3666926,12.7584665 41.5633141,10.0218313 40.7399099,7.5361602 C40.0813918,5.54769597 38.056235,4.51296819 36.2168315,5.22482022 C34.7451719,5.79430185 33.9795805,7.54596633 34.5063949,9.13673772 C34.9278465,10.4093548 36.2240153,11.071813 37.4011378,10.6160098 C38.3429041,10.2513673 38.8331152,9.13056349 38.4958171,8.11254244 C38.2262523,7.29790768 37.3966906,6.87406517 36.6430723,7.16570659" id="Stroke-47" stroke="#FFFFFE" stroke-width="0.582"></path>
                        <path d="M33.1394109,13.0252411 C30.0513311,12.7337471 27.3118551,15.0005056 27.0202514,18.088499 C26.7866904,20.5586889 28.6002638,22.7503553 31.0707276,22.9838235 C33.0469596,23.1705299 34.800405,21.719545 34.9870453,19.7432566 C35.1364965,18.1622258 33.9756427,16.7597095 32.3945876,16.6102079 C31.129813,16.4907431 30.0075384,17.4194963 29.888325,18.6841161 C29.7927457,19.6961533 30.5354836,20.5938457 31.5472338,20.6894175 C32.3567034,20.7658749 33.0751121,20.1716231 33.1515755,19.3619933" id="Stroke-49" stroke="#FFFFFE" stroke-width="0.582"></path>
                        <path d="M31,25.0370518 C32.0289986,28.1442329 35.1933063,29.7610617 38.0675238,28.6486598 C40.3666926,27.7585164 41.5633141,25.0218894 40.7399099,22.5363665 C40.0813918,20.5475044 38.056235,19.5127635 36.2168315,20.2250262 C34.7451719,20.7945404 33.9795805,22.5459817 34.5063949,24.1369235 C34.9278465,25.409455 36.2240153,26.0717927 37.4011378,25.6161813 C38.3429041,25.2515442 38.8331152,24.1306366 38.4958171,23.1125374 C38.2262523,22.2978362 37.3966906,21.8740288 36.6430723,22.1658124" id="Stroke-51" stroke="#FFFFFE" stroke-width="0.582"></path>
                        <path d="M33.1394109,29.0252585 C30.0513311,28.7336575 27.3118551,31.0004295 27.0202514,34.0884805 C26.7866904,36.5585737 28.6002638,38.7502732 31.0707276,38.983832 C33.0469596,39.1704706 34.800405,37.7197643 34.9870453,35.7432031 C35.1364965,34.1625103 33.9756427,32.759767 32.3945876,32.6103172 C31.129813,32.4907573 30.0075384,33.4194317 29.888325,34.6841945 C29.7927457,35.6959353 30.5354836,36.5936771 31.5472338,36.6892555 C32.3567034,36.7657182 33.0751121,36.1713943 33.1515755,35.3619322" id="Stroke-53" stroke="#FFFFFE" stroke-width="0.582"></path>
                        <path d="M29.1948979,44 C30.8457573,41.4085074 29.8767024,38.0895841 27.0300117,36.586384 C24.7530278,35.3839583 21.836276,36.0899051 20.515441,38.1630992 C19.4586255,39.8213859 20.0788501,41.9456043 21.9008059,42.9076791 C23.3580756,43.6770705 25.225018,43.2255734 26.0701754,41.8986083 C26.7464488,40.8371705 26.3496821,39.4776439 25.1837188,38.8619966 C24.2508008,38.3695458 23.0560756,38.6585711 22.5151306,39.5078556 C22.0822271,40.1872832 22.3362906,41.0573802 23.0826251,41.4511394" id="Stroke-55" stroke="#FFFFFE" stroke-width="0.582"></path>
                        <path d="M30,41.0370518 C31.0289986,44.1442329 34.1933063,45.7610617 37.0675238,44.6486598 C39.3666926,43.7585164 40.5633141,41.0218894 39.7399099,38.5363665 C39.0813918,36.5475044 37.056235,35.5127635 35.2168315,36.2250262 C33.7451719,36.7945404 32.9795805,38.5459817 33.5063949,40.1369235 C33.9278465,41.409455 35.2240153,42.0717927 36.4011378,41.6161813 C37.3429041,41.2515442 37.8331152,40.1306366 37.4958171,39.1125374 C37.2262523,38.2978362 36.3966906,37.8740288 35.6430723,38.1658124" id="Stroke-57" stroke="#FFFFFE" stroke-width="0.582"></path>
                        <path d="M32.1394109,44.0252585 C29.0513311,43.7336575 26.3118551,46.0004295 26.0202514,49.0884805 C25.7866904,51.5585737 27.6002638,53.7502732 30.0707276,53.983832 C32.0469596,54.1704706 33.800405,52.7197643 33.9870453,50.7432031 C34.1364965,49.1621627 32.9756427,47.759767 31.3945876,47.6103172 C30.129813,47.4907573 29.0075384,48.4194317 28.888325,49.6841945 C28.7927457,50.6959353 29.5354836,51.5936771 30.5472338,51.6892555 C31.3567034,51.7657182 32.0751121,51.1713943 32.1515755,50.3619322" id="Stroke-59" stroke="#FFFFFE" stroke-width="0.582"></path>
                        <path d="M14.7015623,14 C17.6273118,13.3739676 19.4992956,10.4593974 18.882449,7.49007917 C18.3892397,5.11448855 16.0917289,3.59480425 13.7509952,4.09535813 C11.8786763,4.49593725 10.6804995,6.36145259 11.0752009,8.26165305 C11.390828,9.78201745 12.8614092,10.754901 14.3594653,10.4342337 C15.5579773,10.1778359 16.324596,8.9842597 16.0719603,7.76790018 C15.8699187,6.79501658 14.9287334,6.17238469 13.9701249,6.37743495 C13.2031711,6.54167919 12.7123072,7.30543192 12.8741415,8.08414685" id="Stroke-61" stroke="#FFFFFE" stroke-width="0.582"></path>
                        <path d="M54.9421458,29.4397653 C55.3847358,26.3514086 53.2399572,23.4888928 50.1516159,23.0463005 C47.6810128,22.6921568 45.3911514,24.4079883 45.0370094,26.8786037 C44.7538357,28.855236 46.1263542,30.6871342 48.1029765,30.9703093 C49.6842045,31.197199 51.1497158,30.0991089 51.3762547,28.517873 C51.5576957,27.2526746 50.679158,26.0804694 49.4143155,25.8990276 C48.4022317,25.7539441 47.4642625,26.4569875 47.3191797,27.4687267 C47.2031135,28.2783978 47.7652657,29.028637 48.5749327,29.1447039" id="Stroke-63" stroke="#FFFFFE" stroke-width="0.582"></path>
                        <path d="M0,9.03708527 C1.02899863,12.1441741 4.19330625,13.7610952 7.06752384,12.6486448 C9.36669265,11.7584665 10.5633141,9.02183129 9.73990991,6.5361602 C9.08139183,4.54769597 7.05623495,3.51296819 5.21683149,4.22482022 C3.74517188,4.79466504 2.97958047,6.54596633 3.50639493,8.13673772 C3.9278465,9.40935483 5.22401532,10.071813 6.40113775,9.61600983 C7.34290412,9.25136726 7.83311524,8.13056349 7.49581715,7.11254244 C7.22625235,6.29790768 6.39669062,5.87406517 5.64307227,6.16570659" id="Stroke-65" stroke="#FFFFFE" stroke-width="0.582"></path>
                        <path d="M57.1948979,9 C58.8457573,6.08450732 57.8767024,2.35048108 55.0300117,0.65963626 C52.7530278,-0.692965419 49.836276,0.101090023 48.515441,2.43318746 C47.4586255,4.29908794 48.0788501,6.68904276 49.9008059,7.77127245 C51.3580756,8.63690786 53.225018,8.12880139 54.0701754,6.63600683 C54.7464488,5.44177118 54.3496821,3.91225944 53.1837188,3.21982529 C52.2508008,2.66572962 51.0560756,2.99099194 50.5151306,3.94638046 C50.0822271,4.71039457 50.3362906,5.68951944 51.0826251,6.1327218" id="Stroke-67" stroke="#FFFFFE" stroke-width="0.582"></path>
                        <path d="M60.1394109,8.02524109 C57.0513311,7.73374707 54.3118551,10.0005056 54.0202514,13.088499 C53.7866904,15.5586889 55.6002638,17.7503553 58.0707276,17.9838235 C60.0469596,18.1705299 61.800405,16.719545 61.9870453,14.7432566 C62.1364965,13.1622258 60.9756427,11.7597095 59.3945876,11.6102079 C58.129813,11.4907431 57.0075384,12.4194963 56.888325,13.6841161 C56.7927457,14.6961533 57.5354836,15.5938457 58.5472338,15.6894175 C59.3567034,15.7658749 60.0751121,15.1716231 60.1515755,14.3619933" id="Stroke-69" stroke="#FFFFFE" stroke-width="0.582"></path>
                        <path d="M9,31.134264 C11.7630152,32.7537098 15.4505991,32.0352563 17.236329,29.5295282 C18.6648393,27.5249458 18.0311337,24.8497176 15.8207215,23.5542278 C14.052318,22.5175016 11.6922349,22.9775259 10.5494267,24.5809243 C9.63518015,25.8640443 10.0406927,27.5760968 11.455563,28.4055446 C12.5873117,29.0688354 14.0976617,28.7746338 14.8290589,27.7482715 C15.414103,26.9271818 15.1545749,25.831281 14.249176,25.3007152 C13.524783,24.8761289 12.5581885,25.064351 12.0900058,25.7212897" id="Stroke-71" stroke="#FFFFFE" stroke-width="0.582"></path>
                    </g>
                </g>
            </g>
        </g>
    </g>
</svg>